<svg width="374" height="136" viewBox="0 0 374 136" fill="none" xmlns="http://www.w3.org/2000/svg">
<path d="M200.4 32.47C196.47 32.47 192.85 31.19 189.9 29.03V84.22H210.9V29.04C207.95 31.19 204.33 32.48 200.4 32.48V32.47Z" fill="#EFC800"/>
<path d="M37 12.23V39.23H21V12.23H0V84.23H21V57.23H37V84.23H58V12.23H37Z" fill="#F28E65"/>
<path d="M121 84.23L94 12.23L67 84.23H85V93.23H103V84.23H121Z" fill="#D2C72E"/>
<path d="M299 66.13L305.78 84.23H326L299 12.23L272 84.23H292.22L299 66.13Z" fill="#EFC800"/>
<path d="M157 48.23C166.94 48.23 175 40.17 175 30.23C175 20.29 166.94 12.23 157 12.23H130V84.23H157C166.94 84.23 175 76.17 175 66.23C175 56.29 166.94 48.23 157 48.23Z" fill="#BAC590"/>
<path d="M277 12.23H260.5H250H248.5H239.5H221.5V30.23H239.5V84.23H260.5V30.23H277V12.23Z" fill="#F28E65"/>
<path d="M374 12.23H357.5H348.5H347H336.5H321.5V30.23H336.5V84.23H357.5V30.23H374V12.23Z" fill="#BAC590"/>
<path d="M200.4 29.22C208.469 29.22 215.01 22.6789 215.01 14.61C215.01 6.54112 208.469 0 200.4 0C192.331 0 185.79 6.54112 185.79 14.61C185.79 22.6789 192.331 29.22 200.4 29.22Z" fill="#EFC800"/>
<path d="M115.45 134.91H100.96V132.48L110.89 117.96H101.24V114.94H115.18V117.37L105.27 131.89H115.46V134.91H115.45Z" fill="#EABC91"/>
<path d="M123.9 114.93H129.92C132.51 114.93 134.48 115.3 135.81 116.05C137.14 116.8 137.81 118.09 137.81 119.94C137.81 121.1 137.52 122.06 136.94 122.84C136.36 123.61 135.53 124.1 134.45 124.31V124.45C135.18 124.6 135.84 124.84 136.42 125.18C137.01 125.52 137.48 126.01 137.83 126.65C138.18 127.29 138.36 128.14 138.36 129.18C138.36 130.99 137.72 132.4 136.43 133.41C135.14 134.42 133.4 134.92 131.2 134.92H123.9V114.94V114.93ZM127.48 123.07H130.39C131.81 123.07 132.78 122.84 133.31 122.38C133.84 121.92 134.11 121.27 134.11 120.41C134.11 119.55 133.79 118.87 133.14 118.48C132.5 118.09 131.48 117.89 130.1 117.89H127.47V123.07H127.48ZM127.48 125.95V131.91H130.73C132.19 131.91 133.2 131.63 133.77 131.06C134.34 130.49 134.62 129.75 134.62 128.84C134.62 127.93 134.33 127.26 133.74 126.74C133.15 126.22 132.09 125.96 130.56 125.96H127.48V125.95Z" fill="#EABC91"/>
<path d="M153.2 114.93C155.83 114.93 157.78 115.42 159.03 116.39C160.29 117.36 160.92 118.83 160.92 120.81C160.92 121.78 160.74 122.61 160.37 123.3C160 123.99 159.53 124.56 158.94 125.02C158.35 125.48 157.73 125.85 157.08 126.13L162.82 134.92H158.79L154 127.03H151.09V134.92H147.51V114.94H153.19L153.2 114.93ZM152.98 117.92H151.11V124.08H153.1C154.59 124.08 155.66 123.81 156.32 123.28C156.97 122.75 157.3 121.96 157.3 120.92C157.3 119.88 156.95 119.07 156.25 118.61C155.55 118.15 154.46 117.92 152.99 117.92H152.98Z" fill="#EABC91"/>
<path d="M182.97 134.91L181.15 129.62H173.62L171.83 134.91H168.02L175.35 114.85H179.44L186.77 134.91H182.96H182.97ZM180.23 126.54L178.49 121.39C178.42 121.15 178.3 120.8 178.15 120.34C178 119.88 177.86 119.42 177.73 118.94C177.6 118.46 177.49 118.07 177.39 117.75C177.3 118.14 177.18 118.58 177.04 119.07C176.9 119.56 176.77 120.01 176.65 120.44C176.53 120.87 176.43 121.19 176.36 121.39L174.6 126.54H180.22H180.23Z" fill="#EABC91"/>
<path d="M206.06 129.45C206.06 131.22 205.42 132.62 204.13 133.65C202.84 134.68 201.06 135.19 198.79 135.19C196.52 135.19 194.72 134.82 193.19 134.07V130.71C194.03 131.08 194.96 131.42 195.97 131.73C196.99 132.04 198.01 132.19 199.03 132.19C200.24 132.19 201.12 131.95 201.67 131.48C202.22 131 202.5 130.39 202.5 129.65C202.5 128.83 202.15 128.17 201.44 127.68C200.73 127.19 199.7 126.65 198.33 126.07C197.51 125.73 196.72 125.32 195.97 124.82C195.21 124.33 194.6 123.7 194.12 122.95C193.64 122.19 193.41 121.25 193.41 120.11C193.41 118.41 194.01 117.08 195.21 116.11C196.41 115.14 198.02 114.65 200.04 114.65C201.08 114.65 202.08 114.76 203.02 114.99C203.96 115.21 204.89 115.53 205.8 115.94L204.65 118.82C203.81 118.47 203.01 118.19 202.26 117.98C201.5 117.77 200.73 117.67 199.92 117.67C198.95 117.67 198.21 117.88 197.71 118.31C197.21 118.74 196.95 119.31 196.95 120.02C196.95 120.56 197.09 121.02 197.37 121.41C197.65 121.79 198.08 122.14 198.67 122.46C199.26 122.78 200.02 123.14 200.95 123.55C202.03 124.02 202.95 124.51 203.71 125.02C204.47 125.53 205.04 126.14 205.44 126.84C205.84 127.54 206.04 128.41 206.04 129.46L206.06 129.45Z" fill="#EABC91"/>
<path d="M214.87 134.91V114.93H218.45V131.89H226.79V134.91H214.87Z" fill="#EABC91"/>
<path d="M247.64 134.91L245.82 129.62H238.29L236.5 134.91H232.69L240.02 114.85H244.11L251.44 134.91H247.63H247.64ZM244.9 126.54L243.16 121.39C243.09 121.15 242.97 120.8 242.82 120.34C242.67 119.88 242.53 119.42 242.4 118.94C242.27 118.46 242.16 118.07 242.06 117.75C241.97 118.14 241.85 118.58 241.71 119.07C241.57 119.56 241.44 120.01 241.32 120.44C241.2 120.87 241.1 121.19 241.03 121.39L239.27 126.54H244.89H244.9Z" fill="#EABC91"/>
<path d="M273.05 114.93L266.14 134.91H262.31L255.4 114.93H259.07L263.1 127.16C263.21 127.5 263.34 127.93 263.49 128.46C263.64 128.99 263.78 129.54 263.92 130.1C264.06 130.66 264.17 131.14 264.24 131.56C264.31 131.15 264.42 130.67 264.55 130.12C264.68 129.57 264.82 129.03 264.97 128.5C265.12 127.97 265.25 127.53 265.36 127.17L269.39 114.94H273.06L273.05 114.93Z" fill="#EABC91"/>
</svg>
