<svg width="374" height="94" viewBox="0 0 374 94" fill="none" xmlns="http://www.w3.org/2000/svg">
<g clip-path="url(#clip0_1_93)">
<path d="M200.4 32.47C196.47 32.47 192.85 31.19 189.9 29.03V84.22H210.9V29.04C207.95 31.19 204.33 32.48 200.4 32.48V32.47Z" fill="#EFC800"/>
<path d="M37 12.23V39.23H21V12.23H0V84.23H21V57.23H37V84.23H58V12.23H37Z" fill="#F28E65"/>
<path d="M121 84.23L94 12.23L67 84.23H85V93.23H103V84.23H121Z" fill="#D2C72E"/>
<path d="M299 66.13L305.78 84.23H326L299 12.23L272 84.23H292.22L299 66.13Z" fill="#EFC800"/>
<path d="M157 48.23C166.94 48.23 175 40.17 175 30.23C175 20.29 166.94 12.23 157 12.23H130V84.23H157C166.94 84.23 175 76.17 175 66.23C175 56.29 166.94 48.23 157 48.23Z" fill="#BAC590"/>
<path d="M277 12.23H260.5H250H248.5H239.5H221.5V30.23H239.5V84.23H260.5V30.23H277V12.23Z" fill="#F28E65"/>
<path d="M374 12.23H357.5H348.5H347H336.5H321.5V30.23H336.5V84.23H357.5V30.23H374V12.23Z" fill="#BAC590"/>
<path d="M200.4 29.22C208.469 29.22 215.01 22.6789 215.01 14.61C215.01 6.54112 208.469 0 200.4 0C192.331 0 185.79 6.54112 185.79 14.61C185.79 22.6789 192.331 29.22 200.4 29.22Z" fill="#EFC800"/>
</g>
<defs>
<clipPath id="clip0_1_93">
<rect width="374" height="93.23" fill="white"/>
</clipPath>
</defs>
</svg>
